name Walk5.mot
datacolumns 19
datarows 20
range 1.84000000 1.93500000
endheader

                time	   L_ground_force_vx	   L_ground_force_vy	   L_ground_force_vz	   L_ground_force_px	   L_ground_force_py	   L_ground_force_pz	   R_ground_force_vx	   R_ground_force_vy	   R_ground_force_vz	   R_ground_force_px	   R_ground_force_py	   R_ground_force_pz	   L_ground_torque_x	   L_ground_torque_y	   L_ground_torque_z	   R_ground_torque_x	   R_ground_torque_y	   R_ground_torque_z	
          1.84000000	          0.00620950	          0.03882080	         -0.00473802	         -0.00009075	          0.00000000	         -0.00005837	        -22.10499300	        827.72466418	        -45.93473925	          0.49208692	          0.00000000	          0.12205200	          0.00000000	          0.00005094	          0.00000000	          0.00000000	          1.51394020	          0.00000000	
          1.84500000	         -0.00020297	          0.01976878	         -0.00301366	         -0.00006938	          0.00000000	         -0.00004657	        -20.68077330	        820.32448259	        -44.97041350	          0.49361541	          0.00000000	          0.12234842	          0.00000000	          0.00001785	          0.00000000	          0.00000000	          1.21716340	          0.00000000	
          1.85000000	         -0.00429912	          0.00598761	         -0.00166951	         -0.00005020	          0.00000000	         -0.00003532	        -19.32045423	        813.95050436	        -44.10052874	          0.49513297	          0.00000000	          0.12263232	          0.00000000	         -0.00000477	          0.00000000	          0.00000000	          0.93118054	          0.00000000	
          1.85500000	         -0.00658589	         -0.00332353	         -0.00067550	         -0.00003392	          0.00000000	         -0.00002532	        -18.01660891	        808.62940483	        -43.35383851	          0.49664694	          0.00000000	          0.12290783	          0.00000000	         -0.00001891	          0.00000000	          0.00000000	          0.65599791	          0.00000000	
          1.86000000	         -0.00753149	         -0.00903174	          0.00001537	         -0.00002080	          0.00000000	         -0.00001690	        -16.76272567	        804.38186923	        -42.75291166	          0.49816522	          0.00000000	          0.12317837	          0.00000000	         -0.00002647	          0.00000000	          0.00000000	          0.39155159	          0.00000000	
          1.86500000	         -0.00754223	         -0.01197800	          0.00045719	         -0.00001075	          0.00000000	         -0.00001016	        -15.55085296	        801.22081977	        -42.31283001	          0.49969449	          0.00000000	          0.12344735	          0.00000000	         -0.00002923	          0.00000000	          0.00000000	          0.13725686	          0.00000000	
          1.87000000	         -0.00695262	         -0.01292006	          0.00070437	         -0.00000345	          0.00000000	         -0.00000504	        -14.37100050	        799.14947058	        -42.04044015	          0.50123830	          0.00000000	          0.12371762	          0.00000000	         -0.00002869	          0.00000000	          0.00000000	         -0.10841264	          0.00000000	
          1.87500000	         -0.00602465	         -0.01250237	          0.00080717	          0.00000151	          0.00000000	         -0.00000136	        -13.21182800	        798.15902093	        -41.93407159	          0.50279776	          0.00000000	          0.12399055	          0.00000000	         -0.00002607	          0.00000000	          0.00000000	         -0.34790041	          0.00000000	
          1.88000000	         -0.00495308	         -0.01124572	          0.00080925	          0.00000457	          0.00000000	          0.00000111	        -12.06215966	        798.22837861	        -41.98350145	          0.50437261	          0.00000000	          0.12426615	          0.00000000	         -0.00002233	          0.00000000	          0.00000000	         -0.58431327	          0.00000000	
          1.88500000	         -0.00387417	         -0.00955046	          0.00074659	          0.00000617	          0.00000000	          0.00000261	        -10.91218206	        799.32394690	        -42.17015442	          0.50596092	          0.00000000	          0.12454318	          0.00000000	         -0.00001817	          0.00000000	          0.00000000	         -0.82085863	          0.00000000	
          1.89000000	         -0.00287589	         -0.00770800	          0.00064736	          0.00000670	          0.00000000	          0.00000336	         -9.75310530	        801.40021942	        -42.46781828	          0.50755877	          0.00000000	          0.12481967	          0.00000000	         -0.00001406	          0.00000000	          0.00000000	         -1.06026277	          0.00000000	
          1.89500000	         -0.00200827	         -0.00591685	          0.00053253	          0.00000652	          0.00000000	          0.00000358	         -8.57719444	        804.40016186	        -42.84528181	          0.50916092	          0.00000000	          0.12509276	          0.00000000	         -0.00001031	          0.00000000	          0.00000000	         -1.30484414	          0.00000000	
          1.90000000	         -0.00129305	         -0.00430027	          0.00041677	          0.00000588	          0.00000000	          0.00000344	         -7.37788686	        808.26122307	        -43.26969679	          0.51076219	          0.00000000	          0.12535908	          0.00000000	         -0.00000710	          0.00000000	          0.00000000	         -1.55651686	          0.00000000	
          1.90500000	         -0.00073212	         -0.00292349	          0.00030958	          0.00000501	          0.00000000	          0.00000307	         -6.14896745	        812.92334916	        -43.70998652	          0.51235832	          0.00000000	          0.12561610	          0.00000000	         -0.00000447	          0.00000000	          0.00000000	         -1.81691415	          0.00000000	
          1.91000000	         -0.00031451	         -0.00180938	          0.00021635	          0.00000406	          0.00000000	          0.00000259	         -4.88386270	        818.32859875	        -44.14014717	          0.51394642	          0.00000000	          0.12586238	          0.00000000	         -0.00000243	          0.00000000	          0.00000000	         -2.08754505	          0.00000000	
          1.91500000	         -0.00002183	         -0.00095182	          0.00013946	          0.00000312	          0.00000000	          0.00000208	         -3.57612363	        824.41765981	        -44.54133334	          0.51552519	          0.00000000	          0.12609703	          0.00000000	         -0.00000094	          0.00000000	          0.00000000	         -2.36943857	          0.00000000	
          1.92000000	          0.00016758	         -0.00032660	          0.00007912	          0.00000228	          0.00000000	          0.00000159	         -2.22125388	        831.12531571	        -44.90280125	          0.51709417	          0.00000000	          0.12632029	          0.00000000	          0.00000010	          0.00000000	          0.00000000	         -2.66310721	          0.00000000	
          1.92500000	          0.00027580	          0.00010017	          0.00003416	          0.00000155	          0.00000000	          0.00000115	         -0.81823983	        838.37910382	        -45.22180480	          0.51865408	          0.00000000	          0.12653361	          0.00000000	          0.00000076	          0.00000000	          0.00000000	         -2.96853770	          0.00000000	
          1.93000000	          0.00032338	          0.00036592	          0.00000264	          0.00000097	          0.00000000	          0.00000078	          0.62954171	        846.10406626	        -45.50302518	          0.52020731	          0.00000000	          0.12673916	          0.00000000	          0.00000112	          0.00000000	          0.00000000	         -3.28481719	          0.00000000	
          1.93500000	          0.00032832	          0.00050741	         -0.00001779	          0.00000052	          0.00000000	          0.00000047	          2.11308546	        854.23067659	        -45.75849732	          0.52175750	          0.00000000	          0.12693876	          0.00000000	          0.00000126	          0.00000000	          0.00000000	         -3.60983531	          0.00000000	
